<?xml version="1.0" standalone="no"?>
<!DOCTYPE svg PUBLIC "-//W3C//DTD SVG 20010904//EN"
 "http://www.w3.org/TR/2001/REC-SVG-20010904/DTD/svg10.dtd">
<svg version="1.0" xmlns="http://www.w3.org/2000/svg"
 width="512.000000pt" height="512.000000pt" viewBox="0 0 512.000000 512.000000"
 preserveAspectRatio="xMidYMid meet">
<metadata>
Created by potrace 1.14, written by Peter Selinger 2001-2017
</metadata>
<g transform="translate(0.000000,512.000000) scale(0.100000,-0.100000)"
fill="#000000" stroke="none">
<path d="M390 5104 c-167 -44 -300 -165 -362 -330 l-23 -59 -3 -2129 c-3
-2331 -6 -2179 55 -2306 35 -72 151 -188 223 -223 127 -61 -25 -58 2306 -55
l2129 3 59 23 c167 63 288 197 331 368 14 54 15 300 13 2190 l-3 2129 -23 59
c-30 81 -73 144 -135 203 -63 59 -106 86 -183 116 l-59 22 -2135 2 c-1849 2
-2142 0 -2190 -13z m1235 -1073 c46 -21 101 -79 122 -129 21 -50 18 -152 -5
-204 -40 -89 -124 -140 -228 -140 -217 -1 -323 270 -168 426 49 48 92 65 169
65 47 0 83 -5 110 -18z m1370 -636 c94 -24 196 -79 265 -143 l64 -59 71 58
c82 67 213 132 303 149 89 18 291 8 362 -18 175 -62 292 -164 370 -321 58
-116 60 -140 60 -763 l0 -568 -210 0 -209 0 -3 538 -3 537 -23 47 c-30 60 -99
122 -159 142 -57 20 -155 21 -215 2 -65 -19 -134 -70 -162 -119 -40 -70 -46
-152 -46 -666 l0 -481 -210 0 -209 0 -3 543 -3 542 -31 55 c-34 59 -100 112
-162 130 -54 15 -151 12 -211 -6 -38 -11 -67 -30 -106 -67 -89 -87 -88 -76
-93 -679 l-4 -518 -209 0 -209 0 0 825 0 825 210 0 210 0 0 -41 c0 -22 3 -39
8 -37 4 2 41 20 82 40 41 21 100 44 130 52 75 20 269 20 345 1z m-1277 -962
l-3 -948 -23 -60 c-48 -130 -144 -236 -267 -298 -189 -94 -444 -85 -607 23
-58 39 -178 148 -178 163 0 7 62 73 137 149 l137 137 38 -44 c48 -54 91 -81
144 -90 51 -8 121 9 152 38 54 50 52 6 52 977 l0 900 210 0 210 0 -2 -947z"/>
</g>
</svg>
